<?xml version="1.0" encoding="utf-8"?>
<!-- Generator: Adobe Illustrator 24.3.0, SVG Export Plug-In . SVG Version: 6.00 Build 0)  -->
<svg version="1.1" id="Camada_1" xmlns="http://www.w3.org/2000/svg" xmlns:xlink="http://www.w3.org/1999/xlink" x="0px" y="0px"
	 viewBox="0 0 300 350" style="enable-background:new 0 0 300 350;" xml:space="preserve">
<style type="text/css">
	.st0{fill:#DDDDDD;}
	.st1{fill:#D3CAFF;}
</style>
<rect class="st0" width="300" height="350"/>
<path class="st1" d="M70.4,189.3h16.2v6.2H62.9V155h7.5V189.3z M108.7,166.8h6.9v28.7h-4.2c-0.9,0-1.5-0.4-1.7-1.3l-0.5-2.3
	c-1.2,1.2-2.5,2.2-3.9,2.9c-1.4,0.7-3.1,1.1-5,1.1c-1.6,0-2.9-0.3-4.2-0.8c-1.2-0.5-2.2-1.3-3-2.2c-0.8-1-1.4-2.1-1.9-3.5
	c-0.4-1.3-0.6-2.8-0.6-4.4v-18.3h6.9v18.3c0,1.8,0.4,3.1,1.2,4.1c0.8,1,2,1.4,3.7,1.4c1.2,0,2.3-0.3,3.4-0.8c1-0.5,2-1.3,3-2.2
	L108.7,166.8z M106.2,154.6h6.7l-6.9,7.3c-0.4,0.4-0.7,0.6-1,0.8c-0.3,0.1-0.8,0.2-1.3,0.2h-4.2l4-6.8c0.3-0.5,0.6-0.9,1-1.1
	S105.5,154.6,106.2,154.6 M129.4,195.5h-6.9v-28.7h4.2c0.9,0,1.5,0.4,1.8,1.3l0.4,2.1c0.5-0.6,1-1.1,1.6-1.5
	c0.6-0.5,1.1-0.9,1.8-1.2c0.6-0.3,1.3-0.6,2-0.8c0.7-0.2,1.5-0.3,2.4-0.3c1.8,0,3.3,0.5,4.5,1.5c1.2,1,2,2.3,2.6,3.9
	c0.4-1,1-1.8,1.7-2.4c0.7-0.7,1.4-1.2,2.2-1.7c0.8-0.4,1.7-0.7,2.6-0.9c0.9-0.2,1.8-0.3,2.7-0.3c1.6,0,3,0.2,4.2,0.7
	c1.2,0.5,2.3,1.2,3.1,2.1s1.5,2.1,1.9,3.4c0.4,1.3,0.7,2.9,0.7,4.6v18.3h-6.9v-18.3c0-1.8-0.4-3.2-1.2-4.1c-0.8-0.9-2-1.4-3.5-1.4
	c-0.7,0-1.4,0.1-2,0.4c-0.6,0.2-1.1,0.6-1.6,1.1c-0.5,0.5-0.8,1-1.1,1.7c-0.3,0.7-0.4,1.5-0.4,2.4v18.3h-6.9v-18.3
	c0-1.9-0.4-3.3-1.2-4.2c-0.8-0.9-1.9-1.3-3.4-1.3c-1,0-1.9,0.2-2.8,0.7c-0.9,0.5-1.7,1.2-2.4,2L129.4,195.5z M169.6,166.8h6.9v28.7
	h-6.9V166.8z M177.5,158.4c0,0.6-0.1,1.2-0.4,1.7c-0.2,0.5-0.6,1-1,1.4c-0.4,0.4-0.9,0.7-1.4,0.9c-0.5,0.2-1.1,0.4-1.7,0.4
	c-0.6,0-1.2-0.1-1.7-0.4c-0.5-0.2-1-0.5-1.4-0.9c-0.4-0.4-0.7-0.8-0.9-1.4c-0.2-0.5-0.4-1.1-0.4-1.7c0-0.6,0.1-1.2,0.4-1.7
	c0.2-0.5,0.5-1,0.9-1.4c0.4-0.4,0.9-0.7,1.4-0.9c0.5-0.2,1.1-0.4,1.7-0.4c0.6,0,1.2,0.1,1.7,0.4c0.5,0.2,1,0.5,1.4,0.9
	c0.4,0.4,0.7,0.9,1,1.4C177.4,157.2,177.5,157.8,177.5,158.4 M189.6,168.1l0.5,2.3c0.6-0.6,1.2-1.1,1.8-1.6c0.6-0.5,1.3-0.9,2-1.3
	s1.5-0.6,2.3-0.8c0.8-0.2,1.7-0.3,2.7-0.3c1.6,0,3,0.3,4.2,0.8c1.2,0.5,2.2,1.3,3,2.2c0.8,1,1.4,2.1,1.9,3.4
	c0.4,1.3,0.6,2.8,0.6,4.4v18.3h-6.9v-18.3c0-1.8-0.4-3.1-1.2-4.1c-0.8-1-2-1.4-3.7-1.4c-1.2,0-2.3,0.3-3.4,0.8c-1,0.5-2,1.3-3,2.2
	v20.8h-6.9v-28.7h4.2C188.7,166.8,189.3,167.2,189.6,168.1 M230.4,188.1v-4.8c-2,0.1-3.7,0.3-5,0.5c-1.4,0.3-2.4,0.6-3.3,1
	c-0.8,0.4-1.4,0.8-1.8,1.4c-0.4,0.5-0.5,1.1-0.5,1.7c0,1.2,0.4,2.1,1.1,2.6c0.7,0.5,1.7,0.8,2.8,0.8c1.4,0,2.7-0.3,3.7-0.8
	C228.4,189.9,229.4,189.2,230.4,188.1 M215.7,173l-1.2-2.2c3.3-3,7.3-4.5,11.9-4.5c1.7,0,3.2,0.3,4.5,0.8c1.3,0.5,2.4,1.3,3.4,2.3
	c0.9,1,1.6,2.2,2.1,3.5c0.5,1.4,0.7,2.9,0.7,4.5v18.1H234c-0.7,0-1.2-0.1-1.5-0.3c-0.4-0.2-0.6-0.6-0.8-1.2L231,192
	c-0.7,0.7-1.4,1.2-2.1,1.7c-0.7,0.5-1.4,0.9-2.2,1.2c-0.7,0.3-1.5,0.6-2.4,0.8c-0.8,0.2-1.8,0.3-2.8,0.3c-1.2,0-2.3-0.2-3.4-0.5
	c-1-0.3-1.9-0.8-2.7-1.5c-0.7-0.7-1.3-1.5-1.7-2.4c-0.4-1-0.6-2.1-0.6-3.4c0-0.7,0.1-1.4,0.4-2.2c0.2-0.7,0.6-1.4,1.2-2.1
	c0.5-0.7,1.3-1.3,2.1-1.9s2-1.1,3.2-1.5c1.3-0.4,2.8-0.8,4.5-1.1c1.7-0.3,3.6-0.4,5.8-0.5v-1.7c0-1.9-0.4-3.3-1.2-4.3
	c-0.8-0.9-2-1.4-3.6-1.4c-1.1,0-2,0.1-2.8,0.4s-1.4,0.6-1.9,0.9s-1.1,0.6-1.5,0.9c-0.5,0.3-1,0.4-1.5,0.4c-0.5,0-0.9-0.1-1.2-0.4
	C216.2,173.7,216,173.4,215.7,173"/>
</svg>
