<svg id="Camada_1" data-name="Camada 1" xmlns="http://www.w3.org/2000/svg" viewBox="0 0 571.6 797.14"><defs><style>.cls-1{fill:none;stroke:#5d0ec0;stroke-miterlimit:10;stroke-width:52px;}</style></defs><path class="cls-1" d="M1219.63,427.66c0,94.22-44.49,182.28-119.4,228V771.48A26.61,26.61,0,0,1,1073.7,798H848.17a26.61,26.61,0,0,1-26.53-26.54V654.74C745.4,609.48,700,522.81,700,427.66c0-143.47,116.32-259.8,259.8-259.8S1219.63,284.19,1219.63,427.66Z" transform="translate(-674.03 -141.86)"/><path class="cls-1" d="M822.74,655.4l-1.1-.66" transform="translate(-674.03 -141.86)"/><path class="cls-1" d="M1100.23,655.62c-1.1.69-2.21,1.35-3.31,2" transform="translate(-674.03 -141.86)"/><path class="cls-1" d="M1100.23,655.62V654.3" transform="translate(-674.03 -141.86)"/><path class="cls-1" d="M821.64,654.74v-2.65" transform="translate(-674.03 -141.86)"/><path class="cls-1" d="M1042.75,798v88.45A26.61,26.61,0,0,1,1016.22,913H903.46a26.61,26.61,0,0,1-26.54-26.53V798" transform="translate(-674.03 -141.86)"/></svg>