<svg id="Camada_1" data-name="Camada 1" xmlns="http://www.w3.org/2000/svg" viewBox="0 0 1000.13 875.94"><defs><style>.cls-1{fill:none;stroke:#fff;stroke-miterlimit:10;stroke-width:45px;}.cls-2{fill:#fff;}</style></defs><path class="cls-1" d="M1482.63,446.66c0,94.22-44.49,182.28-119.4,228V790.48A26.61,26.61,0,0,1,1336.7,817H1111.17a26.61,26.61,0,0,1-26.53-26.54V673.74C1008.4,628.48,963,541.81,963,446.66c0-143.47,116.32-259.8,259.8-259.8S1482.63,303.19,1482.63,446.66Z" transform="translate(-505 -83.06)"/><path class="cls-1" d="M1085.74,674.4c-.37-.22-.75-.44-1.1-.66" transform="translate(-505 -83.06)"/><path class="cls-1" d="M1363.23,674.62c-1.1.69-2.21,1.35-3.31,2" transform="translate(-505 -83.06)"/><path class="cls-1" d="M1363.23,674.62V673.3" transform="translate(-505 -83.06)"/><path class="cls-1" d="M1084.64,673.74v-2.65" transform="translate(-505 -83.06)"/><path class="cls-1" d="M1305.75,817v88.45A26.61,26.61,0,0,1,1279.22,932H1166.46a26.61,26.61,0,0,1-26.54-26.53V817" transform="translate(-505 -83.06)"/><path class="cls-2" d="M663.7,404H516.6A10.63,10.63,0,0,1,506,393.37V174.17a10.63,10.63,0,0,1,10.63-10.63h26.87a10.63,10.63,0,0,1,10.63,10.63V345.24a10.63,10.63,0,0,0,10.63,10.63h99a10.63,10.63,0,0,1,10.63,10.64v26.86A10.63,10.63,0,0,1,663.7,404Z" transform="translate(-505 -83.06)"/><path class="cls-2" d="M930,307.92a93.72,93.72,0,0,1-7.55,37.47,96,96,0,0,1-20.62,30.52,97.71,97.71,0,0,1-30.61,20.54,96.78,96.78,0,0,1-75,0,95.89,95.89,0,0,1-51.06-51.06,93.72,93.72,0,0,1-7.55-37.47V174.17a10.63,10.63,0,0,1,10.63-10.63H775a10.63,10.63,0,0,1,10.63,10.63V307.92a46.45,46.45,0,0,0,3.77,18.61,48.85,48.85,0,0,0,10.32,15.26A48.33,48.33,0,0,0,815,352.1a48.24,48.24,0,0,0,37.39,0,48.21,48.21,0,0,0,25.66-25.57,46.45,46.45,0,0,0,3.77-18.61V174.17a10.63,10.63,0,0,1,10.63-10.63h26.87A10.63,10.63,0,0,1,930,174.17Zm-99.6-166.2-7.28-9.6a10.63,10.63,0,0,1,1.22-14.2l34.31-32a10.63,10.63,0,0,1,15.61,1.22l13,16.61a10.64,10.64,0,0,1-2.73,15.59l-40.07,25A10.64,10.64,0,0,1,830.37,141.72Z" transform="translate(-505 -83.06)"/><path class="cls-2" d="M736.71,681H710a10.63,10.63,0,0,1-10.64-10.63V509.29a22.87,22.87,0,0,0-1.93-9.39,24.8,24.8,0,0,0-5.19-7.63,24,24,0,0,0-41,17V670.37A10.63,10.63,0,0,1,640.62,681H613.76a10.63,10.63,0,0,1-10.63-10.63V509.29a24,24,0,1,0-48,0V670.37A10.63,10.63,0,0,1,544.54,681H517.68a10.63,10.63,0,0,1-10.63-10.63V509.29a70.91,70.91,0,0,1,5.61-28.09,71.81,71.81,0,0,1,38.4-38.4A72.61,72.61,0,0,1,605,442a70,70,0,0,1,16,8.69,10.67,10.67,0,0,0,12.59,0A69.89,69.89,0,0,1,649.5,442a72.35,72.35,0,0,1,53.82.84,71.72,71.72,0,0,1,38.4,38.4,70.74,70.74,0,0,1,5.62,28.09V670.37A10.63,10.63,0,0,1,736.71,681Z" transform="translate(-505 -83.06)"/><path class="cls-2" d="M854.76,681H827.9a10.63,10.63,0,0,1-10.63-10.63V451.17a10.63,10.63,0,0,1,10.63-10.63h26.86a10.63,10.63,0,0,1,10.64,10.63v219.2A10.63,10.63,0,0,1,854.76,681Z" transform="translate(-505 -83.06)"/><path class="cls-2" d="M686.71,959H652a10.63,10.63,0,0,1-9.17-5.26L561.12,814.35a4.29,4.29,0,0,0-8,2.17V948.37A10.63,10.63,0,0,1,542.49,959H515.63A10.63,10.63,0,0,1,505,948.37V729.17a10.63,10.63,0,0,1,10.63-10.63h34.75a10.63,10.63,0,0,1,9.18,5.26l81.65,139.54a4.3,4.3,0,0,0,8-2.17v-132a10.63,10.63,0,0,1,10.63-10.63h26.87a10.63,10.63,0,0,1,10.63,10.63v219.2A10.63,10.63,0,0,1,686.71,959Z" transform="translate(-505 -83.06)"/><path class="cls-2" d="M921,959H894.1a10.63,10.63,0,0,1-10.63-10.63V921.51a10.63,10.63,0,0,0-10.63-10.64h-75a10.63,10.63,0,0,0-10.63,10.64v26.86A10.63,10.63,0,0,1,776.59,959h-26.7a10.63,10.63,0,0,1-10.63-10.63V814.79a93.6,93.6,0,0,1,7.55-37.48,97.78,97.78,0,0,1,20.54-30.6,96,96,0,0,1,30.52-20.63,96.9,96.9,0,0,1,75,0,96.5,96.5,0,0,1,51.23,51.23,93.77,93.77,0,0,1,7.55,37.48V948.37A10.63,10.63,0,0,1,921,959Zm-48.12-96.08a10.64,10.64,0,0,0,10.63-10.64V814.79a47.05,47.05,0,0,0-3.77-18.7A48.09,48.09,0,0,0,854,770.44a48.12,48.12,0,0,0-37.39,0A48,48,0,0,0,791,796.09a47.05,47.05,0,0,0-3.77,18.7v37.49a10.64,10.64,0,0,0,10.63,10.64Z" transform="translate(-505 -83.06)"/></svg>