<svg id="Camada_1" data-name="Camada 1" xmlns="http://www.w3.org/2000/svg" viewBox="0 0 1526.43 399.71"><defs><style>.cls-1{fill:#fff;}</style></defs><path class="cls-1" d="M393.42,739.72H210.23A13.25,13.25,0,0,1,197,726.48v-273a13.25,13.25,0,0,1,13.25-13.24h33.45a13.24,13.24,0,0,1,13.24,13.24V666.54a13.24,13.24,0,0,0,13.24,13.24H393.42A13.25,13.25,0,0,1,406.66,693v33.45A13.24,13.24,0,0,1,393.42,739.72Z" transform="translate(-196.98 -340.01)"/><path class="cls-1" d="M674,620.06a116.63,116.63,0,0,1-9.4,46.67,119.65,119.65,0,0,1-25.68,38,121.83,121.83,0,0,1-38.12,25.58,120.58,120.58,0,0,1-93.35,0,119.41,119.41,0,0,1-63.59-63.59,116.63,116.63,0,0,1-9.4-46.67V453.48a13.24,13.24,0,0,1,13.24-13.24h33.25a13.24,13.24,0,0,1,13.24,13.24V620.06a57.63,57.63,0,0,0,4.7,23.18,60.13,60.13,0,0,0,32,31.85,60.15,60.15,0,0,0,46.57,0,60.13,60.13,0,0,0,32-31.85,57.63,57.63,0,0,0,4.7-23.18V453.48a13.25,13.25,0,0,1,13.25-13.24h33.45A13.24,13.24,0,0,1,674,453.48Zm-124-207-9.07-12a13.24,13.24,0,0,1,1.51-17.68l42.74-39.86a13.24,13.24,0,0,1,19.45,1.51l16.24,20.7a13.25,13.25,0,0,1-3.41,19.41L567.49,416.3A13.23,13.23,0,0,1,549.94,413.07Z" transform="translate(-196.98 -340.01)"/><path class="cls-1" d="M1009.92,739.72H976.68a13.24,13.24,0,0,1-13.24-13.24V525.87a28.78,28.78,0,0,0-2.4-11.7,31.22,31.22,0,0,0-6.48-9.5,29.84,29.84,0,0,0-51.06,21.2V726.48a13.24,13.24,0,0,1-13.24,13.24H856.8a13.24,13.24,0,0,1-13.24-13.24V525.87a29.87,29.87,0,1,0-59.73,0V726.48a13.24,13.24,0,0,1-13.24,13.24H737.14a13.25,13.25,0,0,1-13.25-13.24V525.87a88.08,88.08,0,0,1,7-35,89.37,89.37,0,0,1,47.83-47.83,90.48,90.48,0,0,1,67.14-1,86.75,86.75,0,0,1,19.93,10.82,13.33,13.33,0,0,0,15.69,0A86.66,86.66,0,0,1,901.31,442a90.19,90.19,0,0,1,67,1,89.37,89.37,0,0,1,47.83,47.83,88.26,88.26,0,0,1,7,35V726.48A13.25,13.25,0,0,1,1009.92,739.72Z" transform="translate(-196.98 -340.01)"/><path class="cls-1" d="M1123.33,739.72h-33.46a13.24,13.24,0,0,1-13.24-13.24v-273a13.24,13.24,0,0,1,13.24-13.24h33.46a13.24,13.24,0,0,1,13.24,13.24v273A13.24,13.24,0,0,1,1123.33,739.72Z" transform="translate(-196.98 -340.01)"/><path class="cls-1" d="M1418.42,739.72h-43.28a13.25,13.25,0,0,1-11.43-6.55L1262,559.57a5.35,5.35,0,0,0-10,2.71v164.2a13.24,13.24,0,0,1-13.24,13.24h-33.46a13.24,13.24,0,0,1-13.24-13.24v-273a13.24,13.24,0,0,1,13.24-13.24h43.28a13.26,13.26,0,0,1,11.43,6.56l101.7,173.78a5.34,5.34,0,0,0,10-2.7V453.48A13.25,13.25,0,0,1,1385,440.24h33.45a13.24,13.24,0,0,1,13.24,13.24v273A13.24,13.24,0,0,1,1418.42,739.72Z" transform="translate(-196.98 -340.01)"/><path class="cls-1" d="M1710.17,739.72h-33.45a13.24,13.24,0,0,1-13.24-13.24V693a13.25,13.25,0,0,0-13.24-13.25h-93.4A13.25,13.25,0,0,0,1543.6,693v33.45a13.24,13.24,0,0,1-13.24,13.24h-33.24a13.25,13.25,0,0,1-13.25-13.24V560.12a116.85,116.85,0,0,1,9.4-46.68,122,122,0,0,1,25.58-38.11,119.84,119.84,0,0,1,38-25.69,120.61,120.61,0,0,1,93.36,0,120.26,120.26,0,0,1,63.8,63.8,116.85,116.85,0,0,1,9.4,46.68V726.48A13.25,13.25,0,0,1,1710.17,739.72Zm-59.93-119.66a13.25,13.25,0,0,0,13.24-13.25V560.12a58.54,58.54,0,0,0-4.7-23.29,59.78,59.78,0,0,0-32-32,60.05,60.05,0,0,0-46.58,0,59.87,59.87,0,0,0-32,32,58.54,58.54,0,0,0-4.7,23.29v46.69a13.25,13.25,0,0,0,13.24,13.25Z" transform="translate(-196.98 -340.01)"/></svg>